<svg xmlns="http://www.w3.org/2000/svg" id="svg1" version="1.1" viewBox="32.339999999999996 86.94 146.16 35.28" style="max-height: 500px" width="146.16" height="35.28">
  
  <defs id="defs1"/>
  <g id="layer1">
    <path aria-label="image tm." id="text1" d="m 33.467223,112.65177 0.8255,-0.22225 q 0.381,-0.0952 0.60325,-0.1905 0.254,-0.127 0.381,-0.3175 0.127,-0.1905 0.15875,-0.47625 0.03175,-0.3175 0.03175,-0.8255 v -9.87425 q 0,-0.508 -0.03175,-0.793752 -0.03175,-0.3175 -0.15875,-0.508 -0.127,-0.22225 -0.34925,-0.381 -0.1905,-0.15875 -0.508,-0.381 l -1.04775,-0.6985 v -0.635 l 6.95325,-0.762 0.3175,0.22225 q -0.0635,0.73025 -0.09525,1.61925 -0.03175,0.889 -0.03175,2.032002 v 10.16 q 0,0.53975 0.03175,0.85725 0.03175,0.3175 0.15875,0.508 0.127,0.15875 0.34925,0.254 0.254,0.0953 0.635,0.1905 l 0.8255,0.22225 v 0.85725 h -9.04875 z m 4.3815,-17.621252 q -1.17475,0 -2.00025,-0.73025 -0.79375,-0.73025 -0.79375,-1.87325 0,-1.17475 0.79375,-1.905 0.8255,-0.73025 2.00025,-0.73025 1.17475,0 1.9685,0.73025 0.8255,0.73025 0.8255,1.905 0,1.143 -0.8255,1.87325 -0.79375,0.73025 -1.9685,0.73025 z m 5.30226,17.621252 0.8255,-0.22225 q 0.381,-0.0952 0.60325,-0.1905 0.254,-0.127 0.381,-0.3175 0.127,-0.1905 0.15875,-0.47625 0.03175,-0.3175 0.03175,-0.8255 v -9.87425 q 0,-0.508 -0.03175,-0.793752 -0.03175,-0.3175 -0.15875,-0.508 -0.127,-0.22225 -0.34925,-0.381 -0.1905,-0.15875 -0.508,-0.381 l -1.04775,-0.6985 v -0.635 l 6.69925,-0.762 0.34925,0.254 -0.0635,2.00025 h 0.127 q 1.27,-0.92075 2.69875,-1.5875 1.4605,-0.66675 3.14325,-0.66675 1.49225,0 2.38125,0.60325 0.92075,0.5715 1.36525,1.68275 h 0.15875 q 1.30175,-0.92075 2.7305,-1.5875 1.4605,-0.6985 3.27025,-0.6985 1.87325,0 2.88925,1.0795 1.04775,1.04775 1.04775,3.175002 v 9.779 q 0,0.53975 0.03175,0.85725 0.03175,0.28575 0.15875,0.47625 0.127,0.1905 0.34925,0.28575 0.22225,0.0953 0.60325,0.1905 l 0.8255,0.22225 v 0.85725 h -8.763 v -0.85725 l 0.73025,-0.1905 q 0.3175,-0.0952 0.508,-0.1905 0.22225,-0.0952 0.3175,-0.254 0.09525,-0.1905 0.127,-0.508 0.03175,-0.3175 0.03175,-0.889 v -8.54075 q 0,-1.42875 -0.4445,-1.9685 -0.41275,-0.571502 -1.524,-0.571502 -0.8255,0 -1.55575,0.15875 -0.73025,0.127 -1.27,0.28575 0.03175,0.190502 0.03175,0.476252 0.03175,0.254 0.03175,0.60325 v 9.55675 q 0,0.5715 0.03175,0.889 0.03175,0.3175 0.127,0.508 0.09525,0.15875 0.28575,0.254 0.1905,0.0953 0.508,0.1905 l 0.73025,0.1905 v 0.85725 h -8.47725 v -0.85725 l 0.73025,-0.1905 q 0.3175,-0.0952 0.508,-0.1905 0.1905,-0.0952 0.28575,-0.254 0.127,-0.1905 0.15875,-0.508 0.03175,-0.3175 0.03175,-0.889 v -8.54075 q 0,-1.42875 -0.4445,-1.9685 -0.41275,-0.571502 -1.524,-0.571502 -0.8255,0 -1.55575,0.15875 -0.6985,0.127 -1.23825,0.254 v 10.668002 q 0,0.5715 0.03175,0.889 0.03175,0.3175 0.127,0.508 0.127,0.1905 0.3175,0.28575 0.1905,0.0635 0.508,0.15875 l 0.73025,0.1905 v 0.85725 h -8.763 z m 34.289992,1.23825 q -2.25425,0 -3.52425,-1.0795 -1.23825,-1.11125 -1.23825,-3.1115 0,-1.04775 0.381,-1.80975 0.381,-0.79375 1.11125,-1.36525 0.762,-0.5715 1.80975,-0.98425 1.0795,-0.41275 2.413,-0.73025 l 3.20675,-0.79375 v -2.76225 q 0,-1.968502 -0.47625,-2.698752 -0.47625,-0.73025 -1.778,-0.73025 -0.73025,0 -1.016,0.254 -0.254,0.22225 -0.3175,0.889 -0.127,1.524002 -0.6985,2.159002 -0.53975,0.635 -1.778,0.635 -1.04775,0 -1.61925,-0.508 -0.53975,-0.53975 -0.53975,-1.460502 0,-1.524 1.8415,-2.3495 1.8415,-0.85725 5.17525,-0.85725 2.9845,0 4.6355,1.016 1.651,0.98425 1.651,3.333752 v 8.79475 q 0,0.889 0.127,1.30175 0.15875,0.41275 0.60325,0.66675 0.3175,0.15875 0.73025,0.22225 0.41275,0.0635 0.762,0.0952 v 0.762 q -0.4445,0.34925 -1.397,0.73025 -0.92075,0.381 -2.31775,0.381 -2.76225,0 -3.302,-1.93675 h -0.15875 q -0.60325,0.762 -1.68275,1.36525 -1.04775,0.5715 -2.6035,0.5715 z m 2.38125,-2.25425 q 0.66675,0 1.11125,-0.254 0.4445,-0.254 0.66675,-0.66675 v -5.08 l -1.4605,0.127 q -1.2065,0.0952 -1.8415,0.762 -0.635,0.66675 -0.635,2.38125 0,1.55575 0.60325,2.159 0.635,0.5715 1.55575,0.5715 z m 16.001991,8.5725 q -3.556,0 -5.3975,-0.98425 -1.80975,-0.9525 -1.80975,-2.7305 0,-1.11125 1.016,-1.93675 1.04775,-0.8255 2.9845,-1.27 v -0.127 q -1.3335,-0.28575 -2.032,-1.0795 -0.6985,-0.8255 -0.6985,-1.9685 0,-0.66675 0.22225,-1.23825 0.254,-0.5715 0.60325,-1.016 0.34925,-0.47625 0.79375,-0.85725 0.4445,-0.381 0.8255,-0.66675 v -0.127 q -1.143,-0.5715 -1.8415,-1.5875 -0.6985,-1.04775 -0.6985,-2.4765 0,-1.36525 0.53975,-2.381252 0.53975,-1.04775 1.4605,-1.74625 0.9525,-0.6985 2.19075,-1.04775 1.23825,-0.381 2.63525,-0.381 1.143,0 2.06375,0.1905 0.9525,0.1905 1.841504,0.5715 0.73025,-0.66675 1.651,-1.11125 0.9525,-0.47625 1.9685,-0.47625 0.889,0 1.42875,0.4445 0.5715,0.41275 0.5715,1.27 0,0.73025 -0.34925,1.27 -0.34925,0.53975 -1.2065,0.53975 -0.73025,0 -1.04775,-0.28575 -0.3175,-0.3175 -0.5715,-0.85725 -0.22225,-0.4445 -0.6985,-0.4445 -0.47625,0 -1.04775,0.28575 v 0.09525 q 0.92075,0.53975 1.55575,1.49225 0.66675,0.920752 0.66675,2.159002 0,1.36525 -0.53975,2.413 -0.53975,1.016 -1.49225,1.7145 -0.92075,0.66675 -2.159004,1.016 -1.23825,0.34925 -2.63525,0.34925 -1.80975,0 -3.27025,-0.53975 -0.254,0.22225 -0.47625,0.60325 -0.22225,0.381 -0.22225,0.79375 0,0.47625 0.34925,0.79375 0.381,0.28575 1.23825,0.28575 h 5.55625 q 1.143004,0 2.095504,0.22225 0.98425,0.1905 1.7145,0.6985 0.73025,0.47625 1.143,1.30175 0.41275,0.8255 0.41275,2.06375 0,1.36525 -0.5715,2.57175 -0.5715,1.23825 -1.74625,2.159 -1.17475,0.9525 -2.921004,1.49225 -1.74625,0.53975 -4.09575,0.53975 z m 0.66675,-1.23825 q 2.794,0 4.095754,-0.889 1.30175,-0.889 1.30175,-2.44475 0,-1.04775 -0.66675,-1.5875 -0.635,-0.508 -2.127254,-0.508 h -5.334 q -0.4445,0.22225 -0.889,0.79375 -0.41275,0.60325 -0.41275,1.55575 0,1.42875 0.92075,2.25425 0.92075,0.8255 3.1115,0.8255 z m 0.127,-12.98575 q 1.11125,0 1.61925,-0.8255 0.508,-0.8255 0.508,-3.1115 0,-2.476502 -0.53975,-3.365502 -0.508,-0.889 -1.5875,-0.889 -1.11125,0 -1.61925,0.85725 -0.508,0.85725 -0.508,3.143252 0,1.23825 0.127,2.06375 0.127,0.79375 0.381,1.27 0.254,0.47625 0.66675,0.66675 0.41275,0.1905 0.9525,0.1905 z m 18.034014,7.90575 q -4.15925,0 -6.223,-2.31775 -2.06375,-2.31775 -2.06375,-6.38175 0,-2.06375 0.6985,-3.65125 0.6985,-1.619252 1.87325,-2.698752 1.17475,-1.11125 2.63525,-1.68275 1.49225,-0.5715 3.07975,-0.5715 1.651,0 2.95275,0.4445 1.3335,0.41275 2.25425,1.36525 0.92075,0.9525 1.42875,2.476502 0.53975,1.49225 0.5715,3.65125 h -10.4775 q 0.0318,1.9685 0.41275,3.2385 0.381,1.27 1.04775,2.032 0.6985,0.762 1.651,1.0795 0.98425,0.28575 2.2225,0.28575 1.49225,0 2.6035,-0.34925 1.143,-0.381 2.06375,-0.85725 v 1.04775 q -0.41275,0.47625 -1.0795,0.98425 -0.635,0.508 -1.49225,0.9525 -0.85725,0.41275 -1.905,0.66675 -1.04775,0.28575 -2.25425,0.28575 z m -0.254,-16.097252 q -0.60325,0 -1.143,0.3175 -0.508,0.28575 -0.92075,0.9525 -0.41275,0.66675 -0.66675,1.714502 -0.254,1.04775 -0.28575,2.54 l 5.42925,-0.28575 q 0,-1.42875 -0.127,-2.413 -0.0953,-1.016002 -0.381,-1.619252 -0.254,-0.635 -0.73025,-0.92075 -0.47625,-0.28575 -1.17475,-0.28575 z m 21.27255,16.097252 q -2.159,0 -3.302,-1.016 -1.11125,-1.016 -1.11125,-3.3655 V 98.904018 h -2.00025 v -0.762 q 1.87325,-0.73025 3.2385,-2.06375 1.36525,-1.36525 2.032,-3.27025 h 1.80975 v 4.22275 h 4.22275 l -0.41275,1.87325 h -3.81 v 10.287002 q 0,1.2065 0.41275,1.7145 0.4445,0.508 1.651,0.508 0.5715,0 1.2065,-0.0953 0.635,-0.0952 1.0795,-0.1905 v 0.889 q -0.28575,0.254 -0.73025,0.60325 -0.4445,0.3175 -1.0795,0.60325 -0.60325,0.28575 -1.42875,0.47625 -0.79375,0.1905 -1.778,0.1905 z m 5.68321,-1.23825 0.8255,-0.22225 q 0.381,-0.0952 0.60325,-0.1905 0.254,-0.127 0.381,-0.3175 0.127,-0.1905 0.15875,-0.47625 0.0318,-0.3175 0.0318,-0.8255 v -9.87425 q 0,-0.508 -0.0318,-0.793752 -0.0317,-0.3175 -0.15875,-0.508 -0.127,-0.22225 -0.34925,-0.381 -0.1905,-0.15875 -0.508,-0.381 l -1.04775,-0.6985 v -0.635 l 6.69925,-0.762 0.34925,0.254 -0.0635,2.00025 h 0.127 q 1.27,-0.92075 2.69875,-1.5875 1.4605,-0.66675 3.14325,-0.66675 1.49225,0 2.38125,0.60325 0.92075,0.5715 1.36525,1.68275 h 0.15875 q 1.30175,-0.92075 2.7305,-1.5875 1.4605,-0.6985 3.27025,-0.6985 1.87325,0 2.88925,1.0795 1.04775,1.04775 1.04775,3.175002 v 9.779 q 0,0.53975 0.0318,0.85725 0.0317,0.28575 0.15875,0.47625 0.127,0.1905 0.34925,0.28575 0.22225,0.0953 0.60325,0.1905 l 0.8255,0.22225 v 0.85725 h -8.763 v -0.85725 l 0.73025,-0.1905 q 0.3175,-0.0952 0.508,-0.1905 0.22225,-0.0952 0.3175,-0.254 0.0952,-0.1905 0.127,-0.508 0.0318,-0.3175 0.0318,-0.889 v -8.54075 q 0,-1.42875 -0.4445,-1.9685 -0.41275,-0.571502 -1.524,-0.571502 -0.8255,0 -1.55575,0.15875 -0.73025,0.127 -1.27,0.28575 0.0317,0.190502 0.0317,0.476252 0.0318,0.254 0.0318,0.60325 v 9.55675 q 0,0.5715 0.0317,0.889 0.0318,0.3175 0.127,0.508 0.0952,0.15875 0.28575,0.254 0.1905,0.0953 0.508,0.1905 l 0.73025,0.1905 v 0.85725 h -8.47725 v -0.85725 l 0.73025,-0.1905 q 0.3175,-0.0952 0.508,-0.1905 0.1905,-0.0952 0.28575,-0.254 0.127,-0.1905 0.15875,-0.508 0.0317,-0.3175 0.0317,-0.889 v -8.54075 q 0,-1.42875 -0.4445,-1.9685 -0.41275,-0.571502 -1.524,-0.571502 -0.8255,0 -1.55575,0.15875 -0.6985,0.127 -1.23825,0.254 v 10.668002 q 0,0.5715 0.0317,0.889 0.0318,0.3175 0.127,0.508 0.127,0.1905 0.3175,0.28575 0.1905,0.0635 0.508,0.15875 l 0.73025,0.1905 v 0.85725 h -8.763 z m 32.60724,1.0795 q -1.11125,0 -1.87325,-0.762 -0.762,-0.79375 -0.762,-1.87325 0,-1.11125 0.762,-1.8415 0.762,-0.762 1.87325,-0.762 0.508,0 0.98425,0.1905 0.508,0.1905 0.85725,0.53975 0.381,0.34925 0.60325,0.8255 0.22225,0.47625 0.22225,1.04775 0,0.53975 -0.22225,1.016 -0.22225,0.47625 -0.60325,0.85725 -0.34925,0.34925 -0.85725,0.53975 -0.47625,0.22225 -0.98425,0.22225 z" style="font-weight:bold;font-size:31.75px;font-family:'Publico Headline Web';-inkscape-font-specification:'Publico Headline Web Bold';stroke-width:0.264583"/>
  </g>
</svg>